<svg width="16" height="16" viewBox="0 0 16 16" fill="none" xmlns="http://www.w3.org/2000/svg">
<path d="M12.8234 3.82184C12.8234 4.43211 12.3287 4.92684 11.7184 4.92684C11.1081 4.92684 10.6134 4.43211 10.6134 3.82184C10.6134 3.21156 11.1081 2.71684 11.7184 2.71684C12.3287 2.71684 12.8234 3.21156 12.8234 3.82184Z" fill="black"/>
<path fill-rule="evenodd" clip-rule="evenodd" d="M7.66672 11.5568C9.70097 11.5568 11.3501 9.90775 11.3501 7.8735C11.3501 5.83925 9.70097 4.19017 7.66672 4.19017C5.63247 4.19017 3.98338 5.83925 3.98338 7.8735C3.98338 9.90775 5.63247 11.5568 7.66672 11.5568ZM7.66672 10.0835C8.88727 10.0835 9.87672 9.09405 9.87672 7.8735C9.87672 6.65295 8.88727 5.6635 7.66672 5.6635C6.44617 5.6635 5.45672 6.65295 5.45672 7.8735C5.45672 9.09405 6.44617 10.0835 7.66672 10.0835Z" fill="black"/>
<path fill-rule="evenodd" clip-rule="evenodd" d="M0.300049 7.57884C0.300049 5.1034 0.300049 3.86569 0.7818 2.9202C1.20556 2.08852 1.88173 1.41235 2.71341 0.988587C3.6589 0.506836 4.89662 0.506836 7.37205 0.506836H7.96138C10.4368 0.506836 11.6745 0.506836 12.62 0.988587C13.4517 1.41235 14.1279 2.08852 14.5516 2.9202C15.0334 3.86569 15.0334 5.1034 15.0334 7.57884V8.16817C15.0334 10.6436 15.0334 11.8813 14.5516 12.8268C14.1279 13.6585 13.4517 14.3347 12.62 14.7584C11.6745 15.2402 10.4368 15.2402 7.96138 15.2402H7.37205C4.89662 15.2402 3.6589 15.2402 2.71341 14.7584C1.88173 14.3347 1.20556 13.6585 0.7818 12.8268C0.300049 11.8813 0.300049 10.6436 0.300049 8.16817V7.57884ZM7.37205 1.98017H7.96138C9.22341 1.98017 10.0813 1.98132 10.7445 2.0355C11.3904 2.08827 11.7207 2.18393 11.9511 2.30134C12.5056 2.58384 12.9564 3.03463 13.2389 3.58908C13.3563 3.81951 13.4519 4.14983 13.5047 4.79577C13.5589 5.4589 13.5601 6.31681 13.5601 7.57884V8.16817C13.5601 9.4302 13.5589 10.2881 13.5047 10.9512C13.4519 11.5972 13.3563 11.9275 13.2389 12.1579C12.9564 12.7124 12.5056 13.1632 11.9511 13.4457C11.7207 13.5631 11.3904 13.6587 10.7445 13.7115C10.0813 13.7657 9.22341 13.7668 7.96138 13.7668H7.37205C6.11002 13.7668 5.25211 13.7657 4.58898 13.7115C3.94305 13.6587 3.61272 13.5631 3.38229 13.4457C2.82784 13.1632 2.37706 12.7124 2.09455 12.1579C1.97714 11.9275 1.88148 11.5972 1.82871 10.9512C1.77453 10.2881 1.77338 9.4302 1.77338 8.16817V7.57884C1.77338 6.31681 1.77453 5.4589 1.82871 4.79577C1.88148 4.14983 1.97714 3.81951 2.09455 3.58908C2.37706 3.03463 2.82784 2.58384 3.38229 2.30134C3.61272 2.18393 3.94305 2.08827 4.58898 2.0355C5.25211 1.98132 6.11002 1.98017 7.37205 1.98017Z" fill="black"/>
</svg>
