<svg width="16" height="13" viewBox="0 0 16 13" fill="none" xmlns="http://www.w3.org/2000/svg">
<path d="M4.9246 12.7735C3.22238 12.7735 1.63561 12.2635 0.300049 11.3836C1.43399 11.4592 3.43513 11.2782 4.67984 10.0552C2.80739 9.96665 1.96295 8.48734 1.8528 7.85516C2.0119 7.91838 2.77067 7.99424 3.19901 7.81723C1.04508 7.26091 0.714649 5.31378 0.788078 4.71953C1.19194 5.01033 1.87728 5.11148 2.14652 5.08619C0.139452 3.60688 0.861508 1.3816 1.21642 0.901138C2.65676 2.95668 4.8154 4.11115 7.48591 4.17537C7.43556 3.94789 7.40896 3.71105 7.40896 3.4678C7.40896 1.72208 8.77877 0.306885 10.4685 0.306885C11.3514 0.306885 12.1469 0.693218 12.7054 1.31118C13.2953 1.16877 14.1832 0.8354 14.6173 0.547115C14.3985 1.35631 13.7173 2.03134 13.3053 2.28154C13.3087 2.29005 13.302 2.27299 13.3053 2.28154C13.6672 2.22514 14.6465 2.03128 15.0334 1.76091C14.8421 2.2155 14.1199 2.97135 13.5273 3.39451C13.6375 8.40374 9.91696 12.7735 4.9246 12.7735Z" fill="black"/>
</svg>
