<svg width="16" height="16" viewBox="0 0 16 16" fill="none" xmlns="http://www.w3.org/2000/svg">
<path d="M3.85428 2.28762C3.85428 3.27112 3.05864 4.06841 2.07716 4.06841C1.09569 4.06841 0.300049 3.27112 0.300049 2.28762C0.300049 1.30412 1.09569 0.506836 2.07716 0.506836C3.05864 0.506836 3.85428 1.30412 3.85428 2.28762Z" fill="#F8F8F8"/>
<path d="M0.543073 5.37736H3.58087V15.2402H0.543073V5.37736Z" fill="#F8F8F8"/>
<path d="M8.47173 5.37736H5.43393V15.2402H8.47173C8.47173 15.2402 8.47173 12.1352 8.47173 10.1939C8.47173 9.02862 8.84308 7.85828 10.3248 7.85828C11.9993 7.85828 11.9892 9.38318 11.9814 10.5645C11.9712 12.1087 11.9956 13.6846 11.9956 15.2402H15.0334V10.0348C15.0077 6.71102 14.1993 5.1795 11.5399 5.1795C9.9606 5.1795 8.98163 5.94771 8.47173 6.64274V5.37736Z" fill="#F8F8F8"/>
</svg>
