<svg width="115" height="115" viewBox="0 0 115 115" fill="none" xmlns="http://www.w3.org/2000/svg">
<g filter="url(#filter0_d_1538_66)">
<circle cx="57.4817" cy="57.4815" r="24.8216" fill="white"/>
</g>
<path d="M61.9946 57.4815L55.2251 61.3899L55.2251 53.5731L61.9946 57.4815Z" fill="#202023"/>
<path d="M48.9362 109.593L49.8533 109.671C49.8852 109.939 49.9605 110.179 50.0792 110.39C50.1954 110.601 50.3439 110.783 50.5248 110.934C50.7029 111.089 50.9049 111.21 51.1308 111.299C51.3567 111.387 51.5954 111.442 51.8469 111.464C52.3055 111.502 52.7307 111.422 53.1226 111.222C53.512 111.021 53.8356 110.705 54.0932 110.272C54.3484 109.839 54.5037 109.295 54.5593 108.639C54.6148 107.983 54.5532 107.421 54.3745 106.951C54.1933 106.481 53.9276 106.115 53.5774 105.852C53.2247 105.589 52.8191 105.438 52.3606 105.399C52.1091 105.377 51.8646 105.391 51.627 105.441C51.3894 105.49 51.1699 105.575 50.9686 105.694C50.7646 105.816 50.5876 105.971 50.4375 106.16C50.2848 106.35 50.1703 106.574 50.0939 106.831L49.1767 106.753C49.2786 106.372 49.4336 106.036 49.642 105.746C49.8503 105.455 50.0991 105.215 50.3885 105.023C50.6777 104.834 50.9958 104.698 51.343 104.616C51.6877 104.533 52.0511 104.508 52.4332 104.541C53.0792 104.595 53.6402 104.802 54.1165 105.16C54.5927 105.518 54.9504 106 55.1895 106.607C55.4287 107.213 55.5145 107.915 55.4468 108.714C55.3792 109.513 55.1765 110.191 54.8388 110.749C54.501 111.306 54.0673 111.721 53.5376 111.994C53.008 112.267 52.4202 112.376 51.7742 112.322C51.3921 112.289 51.0381 112.203 50.7122 112.064C50.3838 111.924 50.0931 111.736 49.8401 111.498C49.5868 111.263 49.382 110.985 49.2254 110.664C49.0686 110.346 48.9722 109.989 48.9362 109.593Z" fill="#555555"/>
<path d="M44.9638 111.064L46.6446 103.651L47.4988 103.845L45.818 111.257L44.9638 111.064Z" fill="#555555"/>
<path d="M42.623 102.521L40.7785 107.915L39.9498 107.632L41.7943 102.238L42.623 102.521ZM40.0497 108.67C40.2113 108.725 40.3318 108.828 40.4112 108.978C40.4883 109.127 40.5004 109.279 40.4476 109.433C40.3947 109.588 40.2921 109.701 40.1398 109.771C39.9851 109.841 39.827 109.849 39.6655 109.794C39.5039 109.738 39.3846 109.636 39.3075 109.487C39.2281 109.337 39.2148 109.185 39.2676 109.03C39.3205 108.875 39.4242 108.763 39.5789 108.693C39.7312 108.622 39.8882 108.615 40.0497 108.67Z" fill="#555555"/>
<path d="M35.9289 99.6013C36.4084 99.8372 36.7656 100.154 37.0005 100.551C37.2354 100.947 37.3483 101.39 37.3392 101.88C37.3302 102.369 37.2 102.869 36.9487 103.379C36.6931 103.899 36.372 104.31 35.9856 104.614C35.5958 104.918 35.1737 105.098 34.7192 105.153C34.2615 105.209 33.8017 105.123 33.34 104.896C32.9803 104.719 32.689 104.493 32.4659 104.218C32.2429 103.942 32.0982 103.639 32.0319 103.309C31.9657 102.979 31.989 102.643 32.1019 102.301L32.8878 102.688C32.833 102.95 32.8646 103.222 32.9826 103.504C33.0972 103.786 33.3277 104.013 33.6741 104.183C33.9804 104.334 34.2884 104.386 34.5979 104.34C34.9041 104.295 35.1926 104.16 35.4634 103.935C35.7309 103.711 35.9596 103.405 36.1497 103.019C36.3442 102.624 36.4514 102.249 36.4713 101.895C36.4889 101.54 36.4233 101.225 36.2744 100.95C36.1233 100.674 35.8923 100.46 35.5815 100.307C35.3773 100.207 35.1744 100.151 34.9729 100.14C34.7715 100.129 34.5803 100.162 34.3993 100.238C34.2183 100.315 34.0575 100.434 33.9169 100.597L33.131 100.21C33.324 99.9298 33.5677 99.7119 33.8622 99.5563C34.1533 99.4017 34.477 99.3239 34.8333 99.3227C35.1863 99.3227 35.5515 99.4155 35.9289 99.6013Z" fill="#555555"/>
<path d="M29.8845 98.5976L29.2742 99.4933L29.1284 99.391L25.6288 100.037L24.7416 99.4144L28.4602 98.7408L28.5209 98.7834L29.8845 98.5976ZM31.7465 97.3651L27.3813 103.587L26.6642 103.084L31.0295 96.862L31.7465 97.3651ZM28.7812 95.2848L28.9842 98.8727L28.1242 99.0129L27.8697 94.6453L28.7812 95.2848Z" fill="#555555"/>
<path d="M16.1997 90.9695L16.7633 90.4864L18.6861 92.7292L18.1225 93.2123L16.1997 90.9695ZM16.5252 93.4476L15.9552 92.7826L20.0802 89.2462C20.2681 89.0852 20.3856 88.9371 20.4328 88.8021C20.4765 88.6669 20.4773 88.5424 20.4352 88.4286C20.3896 88.3145 20.3249 88.2087 20.2411 88.111C20.1783 88.0377 20.123 87.9808 20.0753 87.9403C20.0256 87.9014 19.9859 87.8703 19.9561 87.8469L20.4375 87.1996C20.4931 87.2302 20.5639 87.2786 20.6501 87.3449C20.7381 87.4096 20.8352 87.5039 20.9415 87.6279C21.1026 87.8157 21.22 88.0344 21.2938 88.284C21.366 88.5317 21.3702 88.7856 21.3064 89.0456C21.2409 89.3038 21.0823 89.5408 20.8306 89.7566L16.5252 93.4476Z" fill="#555555"/>
<path d="M17.2527 82.4059C17.5282 82.8405 17.6665 83.2875 17.6676 83.7467C17.6673 84.2039 17.5395 84.6423 17.284 85.062C17.0273 85.4796 16.6502 85.846 16.1528 86.1612C15.6513 86.4791 15.1558 86.6657 14.6665 86.721C14.1759 86.7742 13.7238 86.7033 13.3103 86.5085C12.8954 86.3115 12.5502 85.9957 12.2747 85.561C11.9992 85.1263 11.8616 84.6804 11.8619 84.2232C11.8608 83.764 11.9897 83.3249 12.2485 82.906C12.506 82.485 12.8856 82.1156 13.3871 81.7977C13.8845 81.4824 14.3775 81.2989 14.866 81.247C15.3533 81.193 15.8043 81.2645 16.2192 81.4615C16.6327 81.6564 16.9772 81.9712 17.2527 82.4059ZM16.5881 82.8271C16.3789 82.4969 16.122 82.2789 15.8176 82.173C15.5133 82.0671 15.1907 82.0504 14.8499 82.1228C14.5092 82.1953 14.1779 82.3335 13.856 82.5375C13.5342 82.7414 13.2668 82.9827 13.0537 83.2613C12.8407 83.5399 12.716 83.84 12.6798 84.1618C12.6435 84.4836 12.73 84.8096 12.9393 85.1398C13.1486 85.47 13.4065 85.6873 13.7129 85.7919C14.0194 85.8964 14.3441 85.9118 14.6869 85.8381C15.0298 85.7643 15.3621 85.6254 15.6839 85.4214C16.0058 85.2174 16.2722 84.9768 16.4831 84.6996C16.6941 84.4223 16.8166 84.1235 16.8508 83.803C16.885 83.4826 16.7974 83.1573 16.5881 82.8271Z" fill="#555555"/>
<path d="M12.288 71.9987L7.29795 75.2565L7.04126 74.3726L10.889 71.9721L10.8724 71.9151L6.34156 71.9633L6.08073 71.0651L9.9225 68.6973L9.90594 68.6403L5.38517 68.6701L5.12847 67.7862L11.0873 67.8643L11.3275 68.6912L7.46961 71.1101L7.49446 71.1956L12.0479 71.1718L12.288 71.9987Z" fill="#555555"/>
<path d="M10.4465 62.6956C10.4831 63.0549 10.4487 63.388 10.3431 63.6947C10.2352 64.0017 10.0607 64.2545 9.81981 64.4531C9.57645 64.652 9.27016 64.7703 8.90094 64.8079C8.57602 64.841 8.30612 64.8038 8.09123 64.6964C7.87388 64.5892 7.69645 64.4345 7.55894 64.2321C7.42143 64.0297 7.31119 63.8022 7.22824 63.5495C7.14258 63.2946 7.06909 63.0373 7.00779 62.7774C6.92837 62.4373 6.86667 62.1613 6.82269 61.9494C6.776 61.7353 6.71933 61.5819 6.65269 61.4892C6.58579 61.3941 6.48219 61.3536 6.34188 61.3679L6.31234 61.3709C5.94804 61.4081 5.67513 61.5366 5.49361 61.7566C5.31183 61.974 5.24139 62.2834 5.28227 62.6846C5.32466 63.1006 5.44898 63.4175 5.65521 63.6352C5.86144 63.853 6.07283 63.9993 6.28938 64.0742L6.07828 64.9314C5.71862 64.8188 5.43025 64.6492 5.21317 64.4227C4.99338 64.1939 4.8304 63.9369 4.72425 63.6518C4.61538 63.3644 4.54639 63.078 4.5173 62.7924C4.49873 62.6103 4.49957 62.3988 4.51979 62.158C4.53731 61.9149 4.60124 61.6759 4.71158 61.4408C4.82168 61.2033 5.00335 60.997 5.2566 60.822C5.50985 60.6469 5.86171 60.5365 6.31216 60.4906L10.0487 60.1098L10.1375 60.9811L9.36952 61.0594L9.37403 61.1037C9.50313 61.1502 9.64485 61.2353 9.7992 61.3588C9.95355 61.4824 10.0916 61.6536 10.2134 61.8725C10.3352 62.0914 10.4129 62.3657 10.4465 62.6956ZM9.65021 62.6424C9.6151 62.2978 9.51781 62.0142 9.35834 61.7917C9.19863 61.5668 9.00555 61.4049 8.77911 61.3061C8.55242 61.2048 8.32092 61.1663 8.08462 61.1903L7.28709 61.2716C7.33516 61.304 7.38406 61.3811 7.43377 61.5029C7.48077 61.6225 7.52609 61.7621 7.56972 61.9218C7.61064 62.0793 7.64872 62.2333 7.68397 62.3839C7.7165 62.5323 7.74369 62.6527 7.76552 62.7449C7.81814 62.9684 7.88771 63.1752 7.97424 63.3653C8.05805 63.5533 8.17134 63.7009 8.31409 63.8082C8.45412 63.9133 8.63491 63.9546 8.85645 63.932C9.15921 63.9012 9.37671 63.7658 9.50896 63.526C9.6385 63.284 9.68558 62.9895 9.65021 62.6424Z" fill="#555555"/>
<path d="M4.4505 53.5081L5.19194 53.5434L5.05145 56.4943L4.31002 56.459L4.4505 53.5081ZM2.98673 55.534L3.02838 54.6591L8.45566 54.9175C8.70281 54.9293 8.88987 54.9023 9.01686 54.8365C9.14149 54.7681 9.22752 54.6781 9.27494 54.5664C9.32002 54.4521 9.34561 54.3307 9.35173 54.2022C9.35632 54.1058 9.35514 54.0265 9.3482 53.9642C9.33878 53.9019 9.33125 53.852 9.3256 53.8145L10.12 53.674C10.1394 53.7344 10.1577 53.8182 10.1749 53.9256C10.1945 54.033 10.2005 54.1683 10.1927 54.3314C10.181 54.5786 10.1163 54.8182 9.99873 55.0504C9.88128 55.2802 9.7101 55.4677 9.4852 55.613C9.26042 55.7559 8.98244 55.8195 8.65127 55.8037L2.98673 55.534Z" fill="#555555"/>
<path d="M11.0926 47.9871C10.9937 48.5123 10.7846 48.9412 10.4652 49.2738C10.1458 49.6065 9.74922 49.834 9.27553 49.9563C8.80184 50.0786 8.28536 50.0871 7.72611 49.9819C7.15713 49.8748 6.67469 49.6757 6.27881 49.3847C5.88095 49.0907 5.59469 48.7322 5.42005 48.3091C5.24343 47.8831 5.20271 47.4172 5.29791 46.9115C5.37205 46.5176 5.51182 46.1763 5.71721 45.8876C5.9226 45.599 6.17559 45.3785 6.47619 45.2261C6.77678 45.0737 7.10673 45.0062 7.46602 45.0234L7.304 45.8842C7.03633 45.9018 6.78274 46.0051 6.54322 46.1942C6.30173 46.3804 6.14528 46.6631 6.07389 47.0424C6.01073 47.378 6.04289 47.6887 6.17036 47.9745C6.29586 48.2574 6.50338 48.4992 6.79294 48.6997C7.08052 48.8973 7.43586 49.036 7.85895 49.1156C8.29176 49.1971 8.68146 49.1999 9.02806 49.1242C9.37511 49.046 9.66096 48.8984 9.8856 48.6813C10.1107 48.4619 10.2553 48.1819 10.3194 47.8415C10.3615 47.6178 10.3608 47.4075 10.3173 47.2104C10.2738 47.0134 10.191 46.838 10.0689 46.6841C9.94684 46.5302 9.7887 46.4073 9.59452 46.3153L9.75653 45.4546C10.0781 45.5654 10.3533 45.7419 10.5822 45.9838C10.8091 46.2229 10.9708 46.5139 11.0674 46.8569C11.162 47.197 11.1704 47.5737 11.0926 47.9871Z" fill="#555555"/>
<path d="M9.18655 41.3878L12.419 42.533L12.1265 43.3586L4.96197 40.8202L5.25448 39.9946L7.88519 40.9267L7.90998 40.8567C7.67707 40.6325 7.52361 40.3655 7.44959 40.0558C7.37407 39.7429 7.41109 39.3754 7.56065 38.9533C7.69038 38.5871 7.87746 38.2925 8.12189 38.0693C8.36399 37.8453 8.66232 37.7109 9.01688 37.6659C9.36994 37.6177 9.77735 37.6754 10.2391 37.839L13.6534 39.0487L13.3609 39.8743L10.0026 38.6845C9.5758 38.5332 9.20654 38.5271 8.89483 38.666C8.5816 38.8018 8.356 39.0644 8.21801 39.4539C8.12216 39.7244 8.09336 39.9872 8.13162 40.2423C8.1707 40.495 8.27796 40.722 8.45339 40.9233C8.62965 41.1222 8.87404 41.2771 9.18655 41.3878Z" fill="#555555"/>
<path d="M15.4086 24.8414L18.8895 29.8238L18.3815 30.5556L12.4965 29.0365L13.0383 28.256L17.6673 29.5538L17.7012 29.505L14.8668 25.6219L15.4086 24.8414Z" fill="#555555"/>
<path d="M22.0747 25.8485L17.8648 22.0048L18.4553 21.358L22.6653 25.2016L22.0747 25.8485ZM17.4634 21.0353C17.3483 21.1614 17.2061 21.2309 17.0368 21.2438C16.8692 21.255 16.7251 21.2055 16.6045 21.0954C16.4839 20.9853 16.4215 20.8462 16.4174 20.6783C16.4149 20.5085 16.4712 20.3606 16.5863 20.2345C16.7014 20.1085 16.8428 20.0398 17.0104 20.0287C17.1797 20.0158 17.3247 20.0643 17.4453 20.1744C17.5659 20.2846 17.6274 20.4245 17.6299 20.5943C17.634 20.7622 17.5785 20.9092 17.4634 21.0353Z" fill="#555555"/>
<path d="M27.2789 21.0017C26.9132 21.305 26.5138 21.4803 26.0806 21.5278C25.6459 21.5733 25.2089 21.4921 24.7697 21.2842C24.3289 21.0744 23.9158 20.7372 23.5304 20.2725C23.1481 19.8116 22.8955 19.3461 22.7724 18.876C22.6493 18.4059 22.6521 17.9616 22.7808 17.5431C22.9095 17.1246 23.1585 16.7621 23.528 16.4557C23.8137 16.2188 24.0788 16.0792 24.3235 16.0371C24.5685 15.9914 24.7845 15.9922 24.9717 16.0395C25.1591 16.0834 25.3092 16.1229 25.4219 16.158L25.479 16.1106L23.6879 13.9509L24.3621 13.3918L29.2142 19.2424L28.5629 19.7826L28.0037 19.1084L27.9237 19.1747C27.9406 19.2958 27.9538 19.4551 27.9635 19.6528C27.9716 19.8486 27.9304 20.0644 27.8398 20.3002C27.7477 20.5341 27.5607 20.768 27.2789 21.0017ZM26.868 20.3203C27.1385 20.096 27.3086 19.836 27.3783 19.5403C27.4465 19.2426 27.4249 18.9279 27.3135 18.5959C27.2006 18.2621 27.0067 17.9294 26.7319 17.5981C26.4602 17.2705 26.1749 17.0233 25.8759 16.8566C25.5754 16.688 25.2749 16.6125 24.9745 16.6302C24.6726 16.646 24.3845 16.7676 24.1103 16.995C23.8246 17.2319 23.6473 17.5027 23.5785 17.8073C23.51 18.1084 23.5316 18.4232 23.6433 18.7516C23.7553 19.0766 23.9392 19.3934 24.1951 19.7019C24.4541 20.0143 24.7371 20.2585 25.044 20.4348C25.3512 20.6075 25.6614 20.6909 25.9747 20.685C26.2884 20.6756 26.5861 20.554 26.868 20.3203Z" fill="#555555"/>
<path d="M34.1154 16.281C33.6407 16.5574 33.1703 16.6911 32.704 16.682C32.2386 16.6695 31.8028 16.5282 31.3964 16.258C30.9909 15.9845 30.6412 15.5954 30.3474 15.0908C30.0536 14.5862 29.8866 14.0879 29.8464 13.5959C29.8071 13.1006 29.8903 12.6485 30.0959 12.2396C30.3025 11.8272 30.6282 11.4916 31.0729 11.2327C31.3295 11.0833 31.6078 10.9785 31.9077 10.9184C32.2077 10.8582 32.5163 10.8646 32.8337 10.9375C33.1497 11.0083 33.4602 11.1654 33.7651 11.4087C34.07 11.6521 34.3563 12.0036 34.6239 12.4633L34.8107 12.7841L31.0132 14.9951L30.6323 14.3409L33.66 12.578C33.4981 12.3 33.2981 12.0843 33.0599 11.931C32.8239 11.7764 32.5676 11.6951 32.291 11.6873C32.0166 11.6781 31.7425 11.7532 31.4688 11.9126C31.1673 12.0881 30.95 12.3149 30.817 12.5928C30.6848 12.8673 30.629 13.1575 30.6495 13.4633C30.6701 13.7691 30.7595 14.0578 30.9176 14.3293L31.1716 14.7655C31.3882 15.1376 31.636 15.4156 31.9149 15.5996C32.1947 15.7803 32.4893 15.8707 32.7987 15.871C33.1068 15.8691 33.4138 15.7791 33.7195 15.6011C33.9184 15.4853 34.0818 15.3529 34.2098 15.204C34.3387 15.0516 34.4289 14.8845 34.4805 14.7027C34.5309 14.5188 34.5384 14.3226 34.5029 14.1142L35.3537 13.8937C35.4212 14.1866 35.4188 14.48 35.3466 14.774C35.2732 15.0658 35.1333 15.3419 34.927 15.6023C34.7195 15.8606 34.449 16.0868 34.1154 16.281Z" fill="#555555"/>
<path d="M40.8939 13.1156C40.4137 13.3005 39.9482 13.3484 39.4977 13.2594C39.0495 13.1695 38.6447 12.9581 38.2833 12.6253C37.9241 12.2916 37.6388 11.85 37.4272 11.3005C37.2139 10.7463 37.1281 10.2239 37.1699 9.73324C37.214 9.2417 37.3721 8.81229 37.6443 8.44503C37.9188 8.07687 38.2962 7.80034 38.7765 7.61544C39.2568 7.43054 39.721 7.38306 40.1692 7.47298C40.6198 7.56201 41.025 7.77452 41.385 8.1105C41.7473 8.44559 42.0352 8.89022 42.2485 9.44439C42.4601 9.99394 42.5434 10.5133 42.4984 11.0026C42.4558 11.4909 42.2972 11.9192 42.0227 12.2873C41.7505 12.6546 41.3742 12.9307 40.8939 13.1156ZM40.6113 12.3813C40.9761 12.2408 41.2403 12.0318 41.4038 11.7541C41.5673 11.4764 41.647 11.1633 41.6428 10.815C41.6386 10.4666 41.568 10.1147 41.4311 9.75907C41.2942 9.40348 41.1101 9.09391 40.8787 8.83037C40.6473 8.56682 40.3775 8.38572 40.069 8.28704C39.7606 8.18837 39.424 8.20927 39.0592 8.34972C38.6943 8.49017 38.4306 8.7004 38.268 8.98041C38.1054 9.26043 38.0266 9.57576 38.0317 9.92642C38.0368 10.2771 38.1077 10.6302 38.2446 10.9858C38.3815 11.3414 38.5652 11.6498 38.7957 11.911C39.0262 12.1723 39.2952 12.3511 39.6027 12.4474C39.9102 12.5438 40.2464 12.5218 40.6113 12.3813Z" fill="#555555"/>
<path d="M53.6874 6.42605L53.7828 7.23695L50.4802 7.62569L50.3848 6.81479L53.6874 6.42605Z" fill="#555555"/>
<path d="M68.8143 5.84563L67.9027 5.71858C67.8853 5.44886 67.823 5.20536 67.7159 4.98808C67.6113 4.77114 67.4727 4.58197 67.3004 4.42055C67.1308 4.25702 66.9356 4.12489 66.7149 4.02417C66.4941 3.92346 66.2587 3.85568 66.0087 3.82084C65.5529 3.75732 65.124 3.81495 64.7218 3.99373C64.3221 4.17285 63.982 4.47144 63.7014 4.8895C63.4232 5.3079 63.2387 5.84302 63.1479 6.49487C63.0571 7.14671 63.0882 7.71189 63.2414 8.1904C63.397 8.66925 63.6425 9.04946 63.978 9.33104C64.3159 9.61296 64.7128 9.78569 65.1686 9.84921C65.4185 9.88405 65.6635 9.88321 65.9034 9.8467C66.1433 9.81018 66.367 9.73769 66.5745 9.6292C66.7847 9.51861 66.9699 9.37329 67.1299 9.19324C67.2927 9.01107 67.4191 8.79387 67.5092 8.54163L68.4208 8.66867C68.2986 9.04385 68.1256 9.37073 67.9019 9.64933C67.6782 9.92793 67.4168 10.155 67.1175 10.3307C66.8186 10.5038 66.4935 10.6222 66.1424 10.6857C65.7938 10.7495 65.4296 10.7549 65.0497 10.702C64.4077 10.6125 63.8586 10.3761 63.4024 9.99277C62.9462 9.60943 62.615 9.10861 62.4089 8.49032C62.2028 7.87203 62.155 7.1659 62.2657 6.37192C62.3764 5.57794 62.6153 4.91176 62.9827 4.37339C63.35 3.83501 63.8054 3.44383 64.3491 3.19983C64.8927 2.95583 65.4855 2.87857 66.1276 2.96805C66.5074 3.02099 66.8563 3.12581 67.1742 3.28254C67.4946 3.4396 67.7747 3.64352 68.0145 3.89428C68.2547 4.1426 68.4443 4.43133 68.5833 4.76047C68.7226 5.08716 68.7996 5.44888 68.8143 5.84563Z" fill="#555555"/>
<path d="M72.8605 4.59158L70.7822 11.9028L69.9397 11.6633L72.018 4.3521L72.8605 4.59158Z" fill="#555555"/>
<path d="M74.7369 13.2481L76.8697 7.96147L77.682 8.28917L75.5492 13.5758L74.7369 13.2481ZM77.6382 7.24699C77.4799 7.18312 77.3651 7.07412 77.2939 6.91999C77.225 6.76678 77.2211 6.61446 77.2822 6.46302C77.3433 6.31158 77.4518 6.20462 77.6077 6.14214C77.766 6.08058 77.9242 6.08174 78.0826 6.14561C78.2409 6.20949 78.3545 6.31802 78.4234 6.47123C78.4947 6.62536 78.4997 6.77814 78.4386 6.92958C78.3775 7.08102 78.2679 7.18752 78.1096 7.24908C77.9537 7.31156 77.7966 7.31087 77.6382 7.24699Z" fill="#555555"/>
<path d="M81.2633 16.5247C80.7972 16.2632 80.4576 15.928 80.2445 15.519C80.0313 15.11 79.9425 14.6616 79.9779 14.1736C80.0134 13.6857 80.1703 13.1936 80.4488 12.6973C80.7321 12.1924 81.0749 11.7988 81.4772 11.5167C81.8828 11.2336 82.314 11.0769 82.7707 11.0466C83.2308 11.0154 83.6853 11.1257 84.1341 11.3775C84.4837 11.5736 84.7624 11.8151 84.9703 12.102C85.1782 12.3888 85.3063 12.699 85.3546 13.0326C85.403 13.3661 85.3616 13.7003 85.2304 14.0353L84.4665 13.6067C84.5354 13.3474 84.5185 13.0741 84.4159 12.7867C84.3166 12.4984 84.0987 12.2598 83.7621 12.071C83.4643 11.9039 83.1596 11.8351 82.8481 11.8645C82.5398 11.893 82.2445 12.0124 81.9619 12.2227C81.6828 12.4321 81.4378 12.7245 81.2272 13.1C81.0117 13.4841 80.8845 13.8524 80.8455 14.205C80.8087 14.5589 80.8572 14.8769 80.9911 15.1591C81.1271 15.4426 81.3462 15.669 81.6483 15.8385C81.8468 15.9499 82.0464 16.0165 82.2469 16.0382C82.4475 16.06 82.6402 16.0376 82.8251 15.9711C83.0099 15.9045 83.1769 15.794 83.3261 15.6393L84.09 16.0679C83.8821 16.3372 83.627 16.5416 83.3246 16.6811C83.0255 16.8197 82.6981 16.88 82.3423 16.8619C81.9898 16.8429 81.6301 16.7305 81.2633 16.5247Z" fill="#555555"/>
<path d="M87.2446 17.8531L87.9023 16.9917L88.0424 17.1017L91.5718 16.6456L92.4241 17.315L88.6746 17.7869L88.6162 17.7411L87.2446 17.8531ZM85.3188 18.9834L90.0134 13.0056L90.7022 13.5466L86.0076 19.5243L85.3188 18.9834ZM88.1675 21.2207L88.1584 17.627L89.0247 17.5334L89.0432 21.9083L88.1675 21.2207Z" fill="#555555"/>
<path d="M100.498 26.2085L99.9094 26.6605L98.1105 24.3172L98.6992 23.8652L100.498 26.2085ZM100.307 23.7165L100.84 24.4112L96.5304 27.7199C96.3342 27.8706 96.2088 28.012 96.1544 28.1443C96.1034 28.277 96.0959 28.4013 96.1318 28.5172C96.1712 28.6335 96.2301 28.7427 96.3085 28.8448C96.3672 28.9213 96.4194 28.9811 96.4649 29.0241C96.5124 29.0657 96.5504 29.0989 96.5788 29.1238L96.0632 29.7443C96.0094 29.7107 95.9413 29.6585 95.8588 29.5877C95.7744 29.5184 95.6825 29.4189 95.583 29.2894C95.4324 29.0931 95.3269 28.8684 95.2666 28.6152C95.2079 28.364 95.2174 28.1103 95.2952 27.854C95.3745 27.5998 95.5457 27.3717 95.8086 27.1698L100.307 23.7165Z" fill="#555555"/>
<path d="M98.9846 34.7028C98.7329 34.2539 98.6189 33.8001 98.6427 33.3415C98.6676 32.885 98.8189 32.4541 99.0966 32.0488C99.3755 31.6457 99.7718 31.3002 100.285 31.0122C100.803 30.7218 101.308 30.5623 101.8 30.5335C102.293 30.5068 102.74 30.602 103.143 30.8189C103.546 31.0379 103.874 31.3719 104.126 31.8208C104.377 32.2698 104.491 32.7224 104.466 33.1789C104.442 33.6375 104.29 34.069 104.008 34.4734C103.729 34.8798 103.33 35.2283 102.812 35.5187C102.298 35.8066 101.796 35.9633 101.305 35.9887C100.816 36.0163 100.369 35.9206 99.9657 35.7015C99.5633 35.4846 99.2362 35.1517 98.9846 34.7028ZM99.6709 34.318C99.8621 34.659 100.107 34.8906 100.405 35.0127C100.703 35.1349 101.024 35.169 101.369 35.115C101.713 35.0611 102.051 34.941 102.383 34.7546C102.716 34.5683 102.996 34.3418 103.224 34.0751C103.451 33.8085 103.592 33.5155 103.646 33.1961C103.699 32.8768 103.63 32.5466 103.439 32.2056C103.248 31.8646 103.002 31.6336 102.702 31.5127C102.402 31.3917 102.078 31.3589 101.732 31.414C101.385 31.4692 101.046 31.5899 100.714 31.7762C100.381 31.9626 100.102 32.1884 99.8768 32.4539C99.6512 32.7194 99.5127 33.0112 99.4613 33.3293C99.4099 33.6474 99.4797 33.977 99.6709 34.318Z" fill="#555555"/>
<path d="M103.381 45.3627L108.539 42.3788L108.748 43.2753L104.776 45.4647L104.79 45.5225L109.317 45.7188L109.529 46.6298L105.565 48.7869L105.578 48.8447L110.094 49.0589L110.303 49.9553L104.357 49.5558L104.161 48.7172L108.144 46.5099L108.124 46.4232L103.576 46.2013L103.381 45.3627Z" fill="#555555"/>
<path d="M104.717 54.7516C104.7 54.3908 104.752 54.0601 104.874 53.7595C104.998 53.4588 105.186 53.2158 105.438 53.0304C105.691 52.845 106.004 52.7434 106.374 52.7258C106.7 52.7102 106.968 52.7619 107.177 52.8808C107.388 52.9995 107.557 53.1636 107.683 53.3731C107.81 53.5826 107.907 53.8157 107.977 54.0725C108.048 54.3317 108.108 54.5927 108.155 54.8555C108.216 55.1993 108.263 55.4783 108.295 55.6922C108.33 55.9085 108.379 56.0648 108.44 56.1609C108.502 56.2595 108.603 56.3055 108.744 56.2988L108.774 56.2974C109.139 56.28 109.419 56.1663 109.612 55.9565C109.805 55.7491 109.892 55.444 109.873 55.0412C109.853 54.6235 109.746 54.3004 109.552 54.0718C109.358 53.8433 109.155 53.6858 108.942 53.5993L109.199 52.7547C109.553 52.8866 109.831 53.0714 110.036 53.3094C110.243 53.5497 110.392 53.8151 110.482 54.1056C110.576 54.3984 110.629 54.6881 110.643 54.9748C110.651 55.1577 110.639 55.3688 110.606 55.6082C110.575 55.8499 110.499 56.0852 110.376 56.314C110.253 56.5452 110.061 56.7414 109.798 56.9025C109.536 57.0636 109.179 57.155 108.726 57.1765L104.975 57.3551L104.933 56.4802L105.704 56.4435L105.702 56.399C105.576 56.3456 105.439 56.253 105.291 56.1213C105.144 55.9896 105.015 55.8112 104.905 55.5861C104.795 55.3609 104.733 55.0828 104.717 54.7516ZM105.509 54.8477C105.526 55.1937 105.608 55.4821 105.755 55.7128C105.902 55.9461 106.086 56.1182 106.307 56.229C106.528 56.3424 106.757 56.3934 106.994 56.3821L107.795 56.344C107.749 56.309 107.704 56.2294 107.661 56.1051C107.62 55.9832 107.583 55.8413 107.548 55.6795C107.515 55.52 107.486 55.3642 107.459 55.2119C107.434 55.0619 107.414 54.9403 107.397 54.847C107.356 54.621 107.298 54.4108 107.222 54.2162C107.148 54.024 107.043 53.8705 106.906 53.7556C106.772 53.6431 106.594 53.5922 106.371 53.6028C106.067 53.6172 105.843 53.7406 105.698 53.9729C105.556 54.2076 105.493 54.4992 105.509 54.8477Z" fill="#555555"/>
<path d="M110.209 64.2492L109.471 64.174L109.77 61.2349L110.509 61.3102L110.209 64.2492ZM111.78 62.3053L111.691 63.1766L106.286 62.6258C106.04 62.6007 105.851 62.6176 105.721 62.6764C105.593 62.738 105.502 62.8232 105.449 62.9322C105.398 63.0439 105.365 63.1637 105.352 63.2917C105.343 63.3877 105.34 63.467 105.343 63.5295C105.349 63.5923 105.354 63.6425 105.358 63.6802L104.557 63.7777C104.541 63.7163 104.527 63.6316 104.516 63.5235C104.502 63.4152 104.503 63.2798 104.52 63.1173C104.545 62.8712 104.622 62.6353 104.752 62.4098C104.882 62.1867 105.063 62.0087 105.295 61.8757C105.527 61.7452 105.808 61.6967 106.138 61.7303L111.78 62.3053Z" fill="#555555"/>
<path d="M103.279 69.4039C103.406 68.8848 103.638 68.4677 103.975 68.1528C104.312 67.8379 104.72 67.6321 105.199 67.5356C105.679 67.439 106.195 67.4583 106.748 67.5936C107.31 67.7312 107.781 67.956 108.161 68.268C108.542 68.583 108.809 68.9564 108.96 69.3884C109.114 69.8233 109.129 70.2907 109.007 70.7906C108.912 71.1799 108.754 71.5131 108.533 71.7903C108.312 72.0674 108.048 72.2739 107.74 72.4099C107.431 72.5458 107.098 72.5955 106.74 72.5589L106.948 71.7081C107.217 71.705 107.475 71.6155 107.725 71.4396C107.976 71.2667 108.147 70.9928 108.239 70.6179C108.32 70.2863 108.305 69.9743 108.193 69.682C108.083 69.3927 107.889 69.1401 107.611 68.9243C107.334 68.7114 106.987 68.5538 106.569 68.4514C106.141 68.3467 105.752 68.3229 105.402 68.3798C105.051 68.4391 104.758 68.5711 104.522 68.7757C104.285 68.9827 104.125 69.2545 104.043 69.5909C103.989 69.812 103.978 70.0221 104.011 70.2212C104.044 70.4202 104.117 70.5999 104.231 70.7602C104.344 70.9204 104.496 71.0517 104.685 71.154L104.476 72.0048C104.161 71.8767 103.896 71.6857 103.68 71.4317C103.467 71.1807 103.321 70.8814 103.243 70.5337C103.167 70.1891 103.179 69.8124 103.279 69.4039Z" fill="#555555"/>
<path d="M104.826 76.0964L101.66 74.7784L101.997 73.9698L109.014 76.891L108.677 77.6996L106.1 76.627L106.072 76.6955C106.292 76.932 106.431 77.2069 106.488 77.5202C106.547 77.8367 106.49 78.2016 106.318 78.6151C106.169 78.9737 105.966 79.2578 105.71 79.4674C105.456 79.678 105.151 79.7962 104.794 79.822C104.439 79.8511 104.036 79.7714 103.583 79.5831L100.239 78.191L100.576 77.3824L103.865 78.7517C104.283 78.9257 104.652 78.9518 104.97 78.8299C105.29 78.7112 105.53 78.4611 105.689 78.0797C105.799 77.8147 105.842 77.5539 105.817 77.2971C105.792 77.0427 105.697 76.8102 105.533 76.5998C105.368 76.3916 105.132 76.2238 104.826 76.0964Z" fill="#555555"/>
<path d="M97.72 92.283L94.513 87.1199L95.0597 86.4167L100.854 88.251L100.271 89.0012L95.7188 87.4555L95.6824 87.5024L98.3031 91.5328L97.72 92.283Z" fill="#555555"/>
<path d="M91.118 90.9177L95.1145 94.9829L94.4899 95.5969L90.4934 91.5317L91.118 90.9177ZM95.4629 95.9726C95.5847 95.853 95.7304 95.7912 95.9002 95.7874C96.0682 95.7854 96.2094 95.8425 96.3239 95.959C96.4384 96.0754 96.4931 96.2176 96.4882 96.3856C96.4815 96.5552 96.4173 96.6999 96.2955 96.8196C96.1738 96.9393 96.0289 97.0001 95.861 97.0022C95.6912 97.006 95.5491 96.9497 95.4346 96.8332C95.3201 96.7168 95.2662 96.5737 95.2729 96.4041C95.2779 96.2361 95.3412 96.0923 95.4629 95.9726Z" fill="#555555"/>
<path d="M85.6603 95.4766C86.0418 95.1935 86.4501 95.0399 86.8852 95.0159C87.3217 94.9939 87.7537 95.0986 88.1811 95.3299C88.6099 95.5631 89.0042 95.9222 89.3639 96.407C89.7208 96.8879 89.9479 97.3663 90.0454 97.8424C90.143 98.3184 90.1162 98.7619 89.9652 99.1729C89.8141 99.5838 89.5459 99.9323 89.1604 100.218C88.8623 100.439 88.59 100.565 88.3434 100.593C88.0963 100.626 87.8807 100.613 87.6964 100.556C87.5116 100.502 87.3638 100.455 87.2532 100.413L87.1936 100.458L88.8656 102.711L88.1622 103.233L83.6328 97.1289L84.3123 96.6247L84.8343 97.3281L84.9177 97.2661C84.9075 97.1443 84.9029 96.9845 84.9039 96.7865C84.9063 96.5906 84.9591 96.3773 85.0623 96.1468C85.1669 95.9182 85.3662 95.6948 85.6603 95.4766ZM86.0337 96.1792C85.7516 96.3886 85.5677 96.639 85.4821 96.9305C85.398 97.224 85.4025 97.5395 85.4958 97.877C85.5906 98.2165 85.7662 98.5591 86.0228 98.9048C86.2764 99.2465 86.548 99.5087 86.8375 99.6913C87.1285 99.8759 87.4245 99.9675 87.7254 99.966C88.0277 99.9666 88.322 99.8607 88.6081 99.6484C88.9061 99.4272 89.0977 99.1664 89.1829 98.866C89.2675 98.569 89.263 98.2535 89.1692 97.9195C89.0748 97.589 88.9083 97.2628 88.6694 96.9409C88.4276 96.615 88.1582 96.3558 87.8613 96.1633C87.5639 95.9742 87.2586 95.8742 86.9454 95.8632C86.6317 95.8556 86.3278 95.961 86.0337 96.1792Z" fill="#555555"/>
<path d="M77.7631 99.9172C78.252 99.6668 78.729 99.5587 79.1941 99.593C79.6581 99.6305 80.0857 99.7952 80.4769 100.087C80.8671 100.382 81.1952 100.789 81.4614 101.309C81.7276 101.829 81.8674 102.335 81.881 102.829C81.8936 103.325 81.7861 103.772 81.5587 104.17C81.3302 104.57 80.9869 104.888 80.5288 105.122C80.2645 105.258 79.981 105.347 79.6782 105.391C79.3755 105.435 79.0676 105.412 78.7547 105.322C78.4429 105.234 78.1413 105.061 77.85 104.801C77.5587 104.542 77.2918 104.175 77.0493 103.702L76.8802 103.372L80.7914 101.369L81.1365 102.042L78.0181 103.639C78.1647 103.926 78.3528 104.152 78.5823 104.318C78.8097 104.485 79.0612 104.58 79.337 104.603C79.6106 104.627 79.8883 104.566 80.1702 104.422C80.4807 104.263 80.7099 104.048 80.8578 103.778C81.0046 103.511 81.076 103.224 81.0719 102.918C81.0678 102.611 80.9942 102.318 80.851 102.039L80.6209 101.589C80.4247 101.206 80.1922 100.915 79.9236 100.716C79.654 100.521 79.3647 100.415 79.0558 100.398C78.748 100.383 78.4367 100.456 78.1218 100.617C77.9169 100.722 77.7466 100.846 77.6108 100.988C77.4738 101.133 77.3747 101.295 77.3134 101.473C77.2531 101.654 77.2351 101.85 77.2593 102.06L76.3978 102.234C76.3463 101.938 76.3645 101.645 76.4524 101.356C76.5415 101.068 76.696 100.8 76.9161 100.551C77.1372 100.304 77.4196 100.093 77.7631 99.9172Z" fill="#555555"/>
<path d="M70.4304 103.184C70.92 103.025 71.3873 103.003 71.8323 103.116C72.275 103.23 72.6679 103.463 73.0108 103.814C73.3514 104.167 73.6125 104.623 73.7941 105.184C73.9772 105.748 74.0347 106.275 73.9665 106.762C73.896 107.251 73.7149 107.671 73.4233 108.023C73.1293 108.376 72.7376 108.632 72.248 108.79C71.7584 108.949 71.2923 108.971 70.8496 108.858C70.4045 108.744 70.0113 108.51 69.67 108.155C69.3263 107.801 69.0628 107.342 68.8797 106.777C68.6981 106.217 68.643 105.693 68.7142 105.207C68.7832 104.722 68.9647 104.303 69.2586 103.95C69.5503 103.598 69.9409 103.343 70.4304 103.184ZM70.6731 103.932C70.3012 104.053 70.0261 104.248 69.8478 104.516C69.6696 104.785 69.5732 105.093 69.5585 105.441C69.5439 105.789 69.5954 106.144 69.7129 106.507C69.8304 106.869 69.9976 107.188 70.2144 107.464C70.4312 107.739 70.6909 107.935 70.9936 108.05C71.2962 108.165 71.6335 108.163 72.0053 108.042C72.3772 107.921 72.6519 107.726 72.8294 107.455C73.0069 107.184 73.1026 106.873 73.1164 106.523C73.1303 106.173 73.0784 105.816 72.9609 105.454C72.8434 105.091 72.6766 104.773 72.4606 104.5C72.2445 104.227 71.9856 104.034 71.6837 103.921C71.3818 103.808 71.0449 103.812 70.6731 103.932Z" fill="#555555"/>
<path d="M60.1113 108.413L60.0598 107.598L63.3785 107.388L63.4301 108.203L60.1113 108.413Z" fill="#555555"/>
<defs>
<filter id="filter0_d_1538_66" x="16.3302" y="16.3299" width="82.303" height="82.3032" filterUnits="userSpaceOnUse" color-interpolation-filters="sRGB">
<feFlood flood-opacity="0" result="BackgroundImageFix"/>
<feColorMatrix in="SourceAlpha" type="matrix" values="0 0 0 0 0 0 0 0 0 0 0 0 0 0 0 0 0 0 127 0" result="hardAlpha"/>
<feOffset/>
<feGaussianBlur stdDeviation="8.16499"/>
<feComposite in2="hardAlpha" operator="out"/>
<feColorMatrix type="matrix" values="0 0 0 0 0 0 0 0 0 0 0 0 0 0 0 0 0 0 0.1 0"/>
<feBlend mode="normal" in2="BackgroundImageFix" result="effect1_dropShadow_1538_66"/>
<feBlend mode="normal" in="SourceGraphic" in2="effect1_dropShadow_1538_66" result="shape"/>
</filter>
</defs>
</svg>
