<svg width="79" height="21" viewBox="0 0 79 21" fill="none" xmlns="http://www.w3.org/2000/svg">
<path d="M13.6829 1.01921C12.698 0.340442 11.4127 0.000236776 9.82716 0.000236776L3.68864 0.000236776C3.20256 0.000236776 2.93402 0.243929 2.88301 0.730844L0.389419 16.4222C0.363503 16.5763 0.401967 16.7172 0.504459 16.8454C0.606365 16.9737 0.734539 17.0376 0.888043 17.0376H3.8038C4.3152 17.0376 4.5963 16.7945 4.64789 16.3069L5.33837 12.0766C5.36358 11.8716 5.45353 11.7049 5.60703 11.5765C5.76042 11.4484 5.95227 11.3646 6.18246 11.3262C6.41266 11.2882 6.62973 11.2689 6.83471 11.2689C7.03911 11.2689 7.28197 11.2819 7.56377 11.3074C7.84486 11.3329 8.02404 11.3455 8.10085 11.3455C10.3003 11.3455 12.0268 10.7242 13.2802 9.48026C14.5331 8.237 15.1603 6.51293 15.1603 4.30735C15.1603 2.79465 14.6674 1.69868 13.6829 1.01885V1.01921ZM10.518 5.73083C10.3897 6.62837 10.0576 7.21779 9.5205 7.49993C8.9833 7.78241 8.21601 7.92301 7.21865 7.92301L5.9525 7.96133L6.60486 3.84607C6.65576 3.56428 6.82193 3.42322 7.10349 3.42322H7.83266C8.85524 3.42322 9.59743 3.57099 10.0578 3.86534C10.518 4.16041 10.6715 4.78239 10.518 5.73083Z" fill="#C1C4CA"/>
<path d="M78.463 0L75.6243 0C75.3422 0 75.1761 0.141068 75.1255 0.423319L72.6316 16.4226L72.5932 16.4995C72.5932 16.6283 72.6443 16.7495 72.7469 16.865C72.8486 16.9802 72.9771 17.0379 73.1304 17.0379H75.6629C76.148 17.0379 76.4167 16.7948 76.4686 16.3073L78.9622 0.577198V0.538993C78.9621 0.179861 78.7954 0.000471758 78.463 0.000471758V0Z" fill="#C1C4CA"/>
<path d="M44.1644 6.19283C44.1644 6.06493 44.1131 5.9429 44.0114 5.82782C43.9088 5.71249 43.7936 5.65442 43.666 5.65442H40.7119C40.43 5.65442 40.1998 5.78326 40.0211 6.03894L35.9545 12.0389L34.2664 6.26994C34.1379 5.86003 33.8569 5.65442 33.4224 5.65442L30.5446 5.65442C30.4164 5.65442 30.3014 5.71226 30.1997 5.82782C30.0971 5.9429 30.0462 6.06516 30.0462 6.19283C30.0462 6.24443 30.2956 7.00055 30.7942 8.462C31.2929 9.92392 31.8299 11.5008 32.4055 13.1931C32.981 14.8851 33.2814 15.783 33.3071 15.8847C31.2096 18.7568 30.1613 20.2951 30.1613 20.4999C30.1613 20.8335 30.3273 21 30.6601 21H33.6142C33.8954 21 34.1255 20.8721 34.3049 20.6156L44.0882 6.46191C44.139 6.41113 44.1644 6.32178 44.1644 6.19271V6.19283Z" fill="#C1C4CA"/>
<path d="M71.6732 5.65442H68.7573C68.3988 5.65442 68.1822 6.07762 68.1054 6.9239C67.4396 5.89858 66.2255 5.38522 64.4603 5.38522C62.6188 5.38522 61.052 6.07762 59.7606 7.46219C58.4688 8.84676 57.8232 10.4754 57.8232 12.3469C57.8232 13.8599 58.2644 15.0649 59.1466 15.9619C60.0291 16.8599 61.2118 17.3081 62.6959 17.3081C63.4375 17.3081 64.192 17.1539 64.9593 16.8465C65.7265 16.5389 66.3271 16.1289 66.7627 15.6158C66.7627 15.6416 66.7366 15.7566 66.686 15.9616C66.6343 16.1671 66.6091 16.3214 66.6091 16.4231C66.6091 16.8338 66.7749 17.0384 67.108 17.0384H69.7554C70.2408 17.0384 70.5224 16.7953 70.5989 16.3078L72.1722 6.26971C72.1974 6.11571 72.1592 5.97499 72.057 5.84662C71.9542 5.71872 71.8266 5.65442 71.6732 5.65442ZM66.6665 13.2313C66.0143 13.8724 65.2277 14.1927 64.307 14.1927C63.5649 14.1927 62.9644 13.9879 62.5038 13.5774C62.0431 13.1681 61.8129 12.6039 61.8129 11.8852C61.8129 10.9372 62.1327 10.1353 62.7724 9.48156C63.411 8.82771 64.2046 8.50091 65.151 8.50091C65.8665 8.50091 66.4613 8.71239 66.935 9.13524C67.4077 9.55844 67.645 10.1418 67.645 10.8855C67.6448 11.8085 67.3187 12.5907 66.6665 13.2313Z" fill="#C1C4CA"/>
<path d="M28.0893 5.65442H25.1735C24.8148 5.65442 24.5979 6.07762 24.5211 6.9239C23.8305 5.89858 22.6155 5.38522 20.8763 5.38522C19.0347 5.38522 17.4679 6.07762 16.1764 7.46219C14.8846 8.84676 14.239 10.4754 14.239 12.3469C14.239 13.8599 14.6803 15.0649 15.5627 15.9619C16.4452 16.8599 17.6278 17.3081 19.1115 17.3081C19.8273 17.3081 20.5695 17.1539 21.3367 16.8465C22.104 16.5389 22.7179 16.1289 23.1783 15.6158C23.0756 15.9232 23.0247 16.1926 23.0247 16.4231C23.0247 16.8338 23.1909 17.0384 23.5235 17.0384H26.1707C26.6563 17.0384 26.938 16.7953 27.0148 16.3078L28.5877 6.26971C28.6129 6.11571 28.5747 5.97499 28.4727 5.84662C28.3703 5.71872 28.2426 5.65442 28.0893 5.65442ZM23.0826 13.2504C22.4302 13.8793 21.6305 14.1927 20.6848 14.1927C19.9426 14.1927 19.3479 13.9879 18.9007 13.5774C18.4528 13.1681 18.2292 12.6039 18.2292 11.8852C18.2292 10.9372 18.5487 10.1353 19.1884 9.48156C19.8274 8.82771 20.6204 8.50079 21.5671 8.50079C22.2829 8.50079 22.8776 8.71239 23.3512 9.13524C23.824 9.55844 24.0609 10.1418 24.0609 10.8855C24.0608 11.8342 23.7348 12.6229 23.0826 13.2504Z" fill="#C1C4CA"/>
<path d="M57.2668 1.01921C56.282 0.340442 54.9971 0.000236776 53.4112 0.000236776L47.3109 0.000236776C46.7992 0.000236776 46.5177 0.243929 46.4669 0.730844L43.9731 16.4222C43.9471 16.5763 43.9856 16.7172 44.0882 16.8454C44.1897 16.9737 44.3182 17.0376 44.4717 17.0376H47.6175C47.9244 17.0376 48.1289 16.8711 48.2315 16.5377L48.9221 12.0766C48.9476 11.8716 49.037 11.7049 49.1908 11.5765C49.3443 11.4484 49.5359 11.3646 49.7663 11.3262C49.9963 11.2882 50.2134 11.2689 50.4185 11.2689C50.623 11.2689 50.8657 11.2819 51.1473 11.3074C51.4285 11.3329 51.6082 11.3455 51.6844 11.3455C53.8843 11.3455 55.6104 10.7242 56.8639 9.48026C58.1172 8.237 58.7438 6.51293 58.7438 4.30735C58.7439 2.79465 58.2513 1.69856 57.2668 1.01885V1.01921ZM53.3345 7.34593C52.7717 7.73045 51.9275 7.92265 50.8024 7.92265L49.5745 7.96121L50.2267 3.84583C50.2774 3.56417 50.4437 3.42286 50.7254 3.42286H51.4157C51.9785 3.42286 52.426 3.44861 52.759 3.49975C53.0909 3.55124 53.4112 3.71123 53.718 3.98031C54.0252 4.24963 54.1784 4.64086 54.1784 5.1534C54.1784 6.23068 53.8968 6.96105 53.3345 7.34593Z" fill="#C1C4CA"/>
</svg>
