<svg
  width="82"
  height="21"
  viewBox="0 0 82 21"
  fill="none"
  xmlns="http://www.w3.org/2000/svg"
>
  <path
    d="M25.9414 16.1364L26.9651 13.8343C28.0713 14.6336 29.5407 15.0493 30.9937 15.0493C32.0669 15.0493 32.7438 14.6496 32.7438 14.0421C32.7273 12.3475 26.3212 13.6744 26.2716 9.42186C26.2551 7.26359 28.2364 5.60097 31.0432 5.60097C32.7108 5.60097 34.3784 6.00064 35.5672 6.9119L34.6096 9.26198C33.5199 8.5905 32.166 8.11092 30.8781 8.11092C30.0031 8.11092 29.4252 8.51063 29.4252 9.02216C29.4417 10.6848 35.8974 9.77358 35.9634 13.8343C35.9634 16.0405 34.0317 17.5912 31.2579 17.5912C29.2271 17.5912 27.3613 17.1276 25.9414 16.1364Z"
    fill="#C1C4CA"
  />
  <path
    d="M65.2204 13.003C64.7086 13.8663 63.7509 14.4577 62.6448 14.4577C61.0102 14.4577 59.6894 13.1788 59.6894 11.5961C59.6894 10.0134 61.0102 8.73441 62.6448 8.73441C63.7509 8.73441 64.7086 9.32594 65.2204 10.1893L68.0438 8.67044C66.9871 6.84795 64.9562 5.60097 62.6448 5.60097C59.227 5.60097 56.4532 8.28678 56.4532 11.5961C56.4532 14.9054 59.227 17.5912 62.6448 17.5912C64.9728 17.5912 66.9871 16.3602 68.0438 14.5217L65.2204 13.003Z"
    fill="#C1C4CA"
  />
  <path
    d="M37.3833 0.629013H40.9166V17.3674H37.3833V0.629013Z"
    fill="#C1C4CA"
  />
  <path
    d="M69.4306 0.629013V17.3674H72.9639V12.3475L77.1577 17.3674H81.6816L76.3487 11.4043L81.2854 5.84077H76.9596L72.9639 10.461V0.629013H69.4306Z"
    fill="#C1C4CA"
  />
  <path
    d="M51.4175 13.0349C50.9056 13.8502 49.849 14.4577 48.6602 14.4577C47.0256 14.4577 45.7048 13.1788 45.7048 11.5961C45.7048 10.0134 47.0256 8.73441 48.6602 8.73441C49.849 8.73441 50.9056 9.37387 51.4175 10.2052V13.0349ZM51.4175 5.84077V7.19969C50.8396 6.25643 49.4032 5.60097 47.9007 5.60097C44.7967 5.60097 42.3531 8.25483 42.3531 11.5801C42.3531 14.9054 44.7967 17.5912 47.9007 17.5912C49.4032 17.5912 50.8396 16.9357 51.4175 15.9925V17.3514H54.9508V5.84077H51.4175Z"
    fill="#C1C4CA"
  />
  <path
    d="M4.43074 13.2755C4.43074 14.496 3.44427 15.4825 2.22373 15.4825C1.00319 15.4825 0.01672 14.496 0.01672 13.2755C0.01672 12.055 1.00319 11.0685 2.22373 11.0685H4.43074V13.2755Z"
    fill="#C1C4CA"
  />
  <path
    d="M5.53425 13.2755C5.53425 12.055 6.52071 11.0685 7.74126 11.0685C8.9618 11.0685 9.94823 12.055 9.94823 13.2755V18.793C9.94823 20.0136 8.9618 21 7.74126 21C6.52071 21 5.53425 20.0136 5.53425 18.793V13.2755Z"
    fill="#C1C4CA"
  />
  <path
    d="M7.74125 4.41402C6.52071 4.41402 5.53425 3.42755 5.53425 2.20701C5.53425 0.986467 6.52071 0 7.74125 0C8.9618 0 9.94823 0.986467 9.94823 2.20701V4.41402H7.74125Z"
    fill="#C1C4CA"
  />
  <path
    d="M7.74125 5.53424C8.9618 5.53424 9.94823 6.52074 9.94823 7.74128C9.94823 8.96183 8.9618 9.94826 7.74125 9.94826H2.20701C0.98647 9.94826 0 8.96183 0 7.74128C0 6.52074 0.98647 5.53424 2.20701 5.53424H7.74125Z"
    fill="#C1C4CA"
  />
  <path
    d="M16.586 7.74128C16.586 6.52074 17.5725 5.53424 18.793 5.53424C20.0135 5.53424 21 6.52074 21 7.74128C21 8.96183 20.0135 9.94826 18.793 9.94826H16.586V7.74128Z"
    fill="#C1C4CA"
  />
  <path
    d="M15.4825 7.74128C15.4825 8.96183 14.496 9.94826 13.2755 9.94826C12.055 9.94826 11.0685 8.96183 11.0685 7.74128V2.20701C11.0685 0.986467 12.055 0 13.2755 0C14.496 0 15.4825 0.986467 15.4825 2.20701V7.74128Z"
    fill="#C1C4CA"
  />
  <path
    d="M13.2755 16.586C14.496 16.586 15.4825 17.5725 15.4825 18.793C15.4825 20.0136 14.496 21 13.2755 21C12.055 21 11.0685 20.0136 11.0685 18.793V16.586H13.2755Z"
    fill="#C1C4CA"
  />
  <path
    d="M13.2755 15.4825C12.055 15.4825 11.0685 14.496 11.0685 13.2755C11.0685 12.055 12.055 11.0685 13.2755 11.0685H18.8097C20.0303 11.0685 21.0167 12.055 21.0167 13.2755C21.0167 14.496 20.0303 15.4825 18.8097 15.4825H13.2755Z"
    fill="#C1C4CA"
  />
</svg>
