<svg width="79" height="21" viewBox="0 0 79 21" fill="none" xmlns="http://www.w3.org/2000/svg">
<path d="M74.2251 9.99598L78.3817 21C77.1567 20.8251 75.9324 20.6059 74.6857 20.4085L72.3442 14.3284L69.9383 19.9066C68.7575 19.7092 67.5975 19.6434 66.4166 19.4901L70.6383 9.86515L66.8092 0L70.3534 0L72.4967 5.51182L74.7942 0L78.381 0L74.2251 9.99598ZM64.0107 0L60.7949 0V19.075C61.845 19.1408 62.9383 19.1842 64.0107 19.3151V0ZM58.0166 18.856C55.0858 18.6592 52.1541 18.4849 49.1574 18.4184V8.4511e-05L52.4384 8.4511e-05V15.3125C54.3199 15.3559 56.2008 15.5086 58.0166 15.596V18.856ZM45.6567 7.45988V10.7408H41.1725V18.2H37.9357V0L47.1232 0V3.28089H41.1732V7.45997H45.6574L45.6567 7.45988ZM32.4225 3.28089V18.375C31.3284 18.375 30.2134 18.375 29.1409 18.4184V3.28089H25.7502V0L35.8342 0V3.28089H32.4225ZM22.2068 10.9151C20.7633 10.9151 19.0567 10.9151 17.8317 10.9816V15.8592C19.7567 15.7276 21.6817 15.575 23.6284 15.5092V18.6592L14.5508 19.3816V0L23.6278 0V3.28089H17.8316V7.69998C19.1008 7.69998 21.0475 7.63423 22.2066 7.63423V10.9158L22.2068 10.9151ZM4.02769 9.07759V20.5401C2.84749 20.6717 1.79676 20.825 0.681641 21L0.681641 0L3.80999 0L8.07518 11.9225V0L11.3567 0V19.6434C10.1975 19.8408 9.01596 19.9066 7.76925 20.0809L4.02769 9.07759Z" fill="#C1C4CA"/>
</svg>
