<svg width="26" height="24" viewBox="0 0 26 24" fill="none" xmlns="http://www.w3.org/2000/svg">
<path d="M12.1982 8.09375H5.16699H12.1982ZM1.26074 1.84375H3.60449L7.51074 17.4688H20.0107L21.2607 13.6797" fill="white"/>
<path d="M12.1982 8.09375H5.16699M1.26074 1.84375H3.60449L7.51074 17.4688H20.0107L21.2607 13.6797" stroke="#656565" stroke-width="1.7" stroke-miterlimit="10" stroke-linecap="round" stroke-linejoin="round"/>
<path d="M8.29199 22.1562C9.15494 22.1562 9.85449 21.4567 9.85449 20.5938C9.85449 19.7308 9.15494 19.0312 8.29199 19.0312C7.42905 19.0312 6.72949 19.7308 6.72949 20.5938C6.72949 21.4567 7.42905 22.1562 8.29199 22.1562Z" fill="white" stroke="#656565" stroke-width="1.7" stroke-miterlimit="10" stroke-linecap="round" stroke-linejoin="round"/>
<path d="M18.4482 22.1562C19.3112 22.1562 20.0107 21.4567 20.0107 20.5938C20.0107 19.7308 19.3112 19.0312 18.4482 19.0312C17.5853 19.0312 16.8857 19.7308 16.8857 20.5938C16.8857 21.4567 17.5853 22.1562 18.4482 22.1562Z" fill="white" stroke="#656565" stroke-width="1.7" stroke-miterlimit="10" stroke-linecap="round" stroke-linejoin="round"/>
<path d="M18.4482 14.3438C21.9 14.3438 24.6982 11.5455 24.6982 8.09375C24.6982 4.64197 21.9 1.84375 18.4482 1.84375C14.9965 1.84375 12.1982 4.64197 12.1982 8.09375C12.1982 11.5455 14.9965 14.3438 18.4482 14.3438Z" fill="white" stroke="#656565" stroke-width="1.7" stroke-miterlimit="10" stroke-linecap="round" stroke-linejoin="round"/>
<path d="M21.1826 6.53125L18.0576 10.0469L16.1045 8.09375" fill="white"/>
<path d="M21.1826 6.53125L18.0576 10.0469L16.1045 8.09375" stroke="#656565" stroke-width="1.7" stroke-miterlimit="10" stroke-linecap="round" stroke-linejoin="round"/>
</svg>
