<svg width="25" height="24" viewBox="0 0 25 24" fill="none" xmlns="http://www.w3.org/2000/svg">
<g clip-path="url(#clip0_1538_36)">
<path fill-rule="evenodd" clip-rule="evenodd" d="M16.6982 14C19.4596 14 21.6982 16.2386 21.6982 19V21C21.6982 21.5523 21.2505 22 20.6982 22C20.1459 22 19.6982 21.5523 19.6982 21V19C19.6982 17.3431 18.3551 16 16.6982 16H8.69824C7.04139 16 5.69824 17.3431 5.69824 19V21C5.69824 21.5523 5.25052 22 4.69824 22C4.14596 22 3.69824 21.5523 3.69824 21V19C3.69824 16.2386 5.93682 14 8.69824 14H16.6982ZM22.1123 9.08128C22.5029 8.69076 23.136 8.69076 23.5266 9.08128C23.8871 9.44177 23.9148 10.009 23.6098 10.4013L23.5266 10.4955L20.6981 13.3239C20.3377 13.6844 19.7704 13.7121 19.3781 13.4071L19.2839 13.3239L17.8697 11.9097C17.4792 11.5192 17.4792 10.886 17.8697 10.4955C18.2302 10.135 18.7975 10.1073 19.1897 10.4123L19.2839 10.4955L19.991 11.2026L22.1123 9.08128ZM12.6982 2C15.4596 2 17.6982 4.23858 17.6982 7C17.6982 9.76142 15.4596 12 12.6982 12C9.93682 12 7.69824 9.76142 7.69824 7C7.69824 4.23858 9.93682 2 12.6982 2ZM12.6982 4C11.0413 4 9.69824 5.34315 9.69824 7C9.69824 8.65685 11.0413 10 12.6982 10C14.3551 10 15.6982 8.65685 15.6982 7C15.6982 5.34315 14.3551 4 12.6982 4Z" fill="#656565"/>
</g>
<defs>
<clipPath id="clip0_1538_36">
<rect width="24" height="24" fill="white" transform="translate(0.698242)"/>
</clipPath>
</defs>
</svg>
