<svg width="24" height="24" viewBox="0 0 24 24" fill="none" xmlns="http://www.w3.org/2000/svg">
<path d="M12.0002 0C9.62687 0 7.3068 0.703788 5.33341 2.02236C3.36002 3.34094 1.82195 5.21508 0.913695 7.4078C0.00544355 9.60051 -0.232196 12.0133 0.230826 14.3411C0.693849 16.6689 1.83674 18.807 3.51497 20.4853C5.1932 22.1635 7.33139 23.3064 9.65916 23.7694C11.9869 24.2324 14.3997 23.9948 16.5924 23.0865C18.7852 22.1783 20.6593 20.6402 21.9779 18.6668C23.2965 16.6934 24.0002 14.3734 24.0002 12C23.9969 8.81843 22.7315 5.76814 20.4818 3.51843C18.2321 1.26872 15.1818 0.00335979 12.0002 0ZM22.1114 11.0769H17.5156C17.3529 7.79308 16.3306 4.67654 14.6172 2.19231C16.6239 2.73108 18.4177 3.8712 19.7574 5.45947C21.0972 7.04774 21.9186 9.00804 22.1114 11.0769ZM8.33448 12.9231H15.666C15.4722 16.485 14.166 19.8023 12.0002 22.1411C9.83909 19.8023 8.52833 16.485 8.33448 12.9231ZM8.33448 11.0769C8.52833 7.515 9.83448 4.19769 12.0002 1.85885C14.1614 4.19769 15.4722 7.51269 15.666 11.0769H8.33448ZM14.6172 21.8077C16.3306 19.32 17.3529 16.2035 17.5156 12.9231H22.1114C21.9186 14.992 21.0972 16.9523 19.7574 18.5405C18.4177 20.1288 16.6239 21.2689 14.6172 21.8077Z" fill="#202023"/>
</svg>
