<svg width="42" height="41" viewBox="0 0 42 41" fill="none" xmlns="http://www.w3.org/2000/svg">
<path id="Vector" d="M20.8534 0C16.8278 0 12.8927 1.1937 9.54564 3.43016C6.19855 5.66661 3.58981 8.84537 2.04932 12.5645C0.508819 16.2836 0.105755 20.3759 0.891093 24.3241C1.67643 28.2723 3.6149 31.8989 6.46137 34.7453C9.30784 37.5918 12.9345 39.5303 16.8826 40.3156C20.8308 41.101 24.9232 40.6979 28.6423 39.1574C32.3613 37.6169 35.5401 35.0082 37.7766 31.6611C40.013 28.314 41.2067 24.3789 41.2067 20.3534C41.201 14.9571 39.0548 9.78341 35.2391 5.96765C31.4233 2.15189 26.2497 0.00569858 20.8534 0ZM38.003 18.7877H30.2081C29.9321 13.2179 28.1982 7.93194 25.292 3.7184C28.6957 4.63221 31.7381 6.566 34.0104 9.25988C36.2828 11.9538 37.676 15.2787 38.003 18.7877ZM14.6358 21.919H27.0709C26.7421 27.9604 24.5268 33.5869 20.8534 37.5539C17.1878 33.5869 14.9646 27.9604 14.6358 21.919ZM14.6358 18.7877C14.9646 12.7463 17.18 7.11976 20.8534 3.15281C24.5189 7.11976 26.7421 12.7424 27.0709 18.7877H14.6358ZM25.292 36.9883C28.1982 32.7689 29.9321 27.4829 30.2081 21.919H38.003C37.676 25.4281 36.2828 28.7529 34.0104 31.4468C31.7381 34.1407 28.6957 36.0745 25.292 36.9883Z" fill="white"/>
</svg>
